<svg width="16" height="16" viewBox="0 0 16 16" fill="none" xmlns="http://www.w3.org/2000/svg">
<path d="M14.5459 -0.000244141H1.45503C0.651397 -0.000244141 0.000488281 0.650665 0.000488281 1.4543V14.5452C0.000488281 15.3488 0.651397 15.9998 1.45503 15.9998H8.72776V9.4543H6.54594V7.27248H8.72776V6.10085C8.72776 3.88267 9.80849 2.90885 11.6521 2.90885C12.535 2.90885 13.0019 2.9743 13.223 3.00412V5.09066H11.9656C11.183 5.09066 10.9096 5.50376 10.9096 6.34012V7.27248H13.2034L12.8921 9.4543H10.9096V15.9998H14.5459C15.3496 15.9998 16.0005 15.3488 16.0005 14.5452V1.4543C16.0005 0.650665 15.3489 -0.000244141 14.5459 -0.000244141Z" fill="#262626"/>
</svg>
