<svg width="24" height="24" viewBox="0 0 24 24" fill="none" xmlns="http://www.w3.org/2000/svg">
<path d="M21.4125 8.37187L12.4125 2.37187C12.2892 2.29347 12.1461 2.25183 12 2.25183C11.8539 2.25183 11.7108 2.29347 11.5875 2.37187L2.58753 8.37187C2.48296 8.43971 2.39721 8.53285 2.33821 8.64265C2.27922 8.75245 2.24889 8.87536 2.25003 9V18.75C2.25003 19.1478 2.40807 19.5294 2.68937 19.8107C2.97068 20.092 3.35221 20.25 3.75003 20.25H20.25C20.6479 20.25 21.0294 20.092 21.3107 19.8107C21.592 19.5294 21.75 19.1478 21.75 18.75V9C21.7512 8.87536 21.7208 8.75245 21.6618 8.64265C21.6029 8.53285 21.5171 8.43971 21.4125 8.37187ZM3.75003 18.75V10.4531L9.92816 14.8594C10.0537 14.9502 10.2045 14.9994 10.3594 15H13.6407C13.7956 14.9994 13.9464 14.9502 14.0719 14.8594L20.25 10.4531V18.75H3.75003Z" fill="#0E0F0F"/>
</svg>
