<svg width="15" height="12" viewBox="0 0 15 12" fill="none" xmlns="http://www.w3.org/2000/svg">
<path d="M14.9995 1.42042C14.4474 1.66179 13.8544 1.82422 13.2319 1.89749C13.8676 1.52265 14.3551 0.92915 14.5847 0.221497C13.9905 0.568508 13.3317 0.820673 12.6302 0.956978C12.0689 0.368025 11.2693 0 10.3843 0C8.68475 0 7.30712 1.35681 7.30712 3.02939C7.30712 3.26679 7.33481 3.49851 7.38673 3.71944C4.82933 3.59335 2.56211 2.38705 1.0437 0.553741C0.779482 1.00128 0.627757 1.52151 0.627757 2.07752C0.627757 3.12821 1.17062 4.05566 1.99617 4.59861C1.49195 4.58271 1.01716 4.4464 0.602373 4.21979C0.602373 4.23285 0.602373 4.24478 0.602373 4.25784C0.602373 5.72597 1.66272 6.95045 3.07093 7.22817C2.81306 7.29746 2.54076 7.33437 2.25981 7.33437C2.06193 7.33437 1.86867 7.31506 1.68118 7.28042C2.07289 8.48388 3.20939 9.36021 4.55588 9.38464C3.50303 10.1974 2.17616 10.6818 0.733907 10.6818C0.485839 10.6818 0.240656 10.6676 -0.000488281 10.6392C1.36157 11.4985 2.97863 12 4.71683 12C10.3774 12 13.4719 7.38378 13.4719 3.38038C13.4719 3.24918 13.469 3.11856 13.4632 2.9885C14.0649 2.56084 14.587 2.02754 14.9995 1.42042Z" fill="#262626"/>
</svg>
