<svg width="16" height="14" viewBox="0 0 16 14" fill="none" xmlns="http://www.w3.org/2000/svg">
<path d="M0.283082 6.71317L3.9698 8.09601L5.3968 12.708C5.48812 13.0034 5.84752 13.1126 6.08609 12.9166L8.14112 11.233C8.35652 11.0566 8.66337 11.0478 8.88849 11.212L12.5951 13.9164C12.8502 14.1029 13.2118 13.9623 13.2758 13.6524L15.9911 0.526557C16.0609 0.188037 15.7299 -0.0943931 15.4092 0.0302869L0.278769 5.89615C-0.0946062 6.04087 -0.0913562 6.57212 0.283082 6.71317ZM5.16683 7.35987L12.3721 2.90009C12.5016 2.82017 12.6348 2.99613 12.5236 3.0998L6.57718 8.65478C6.36818 8.85031 6.23334 9.11199 6.19515 9.39602L5.99259 10.9046C5.96577 11.106 5.68421 11.126 5.6289 10.9311L4.84987 8.18012C4.76065 7.86632 4.89068 7.53119 5.16683 7.35987Z" fill="#262626"/>
</svg>
